<?xml version="1.0" encoding="utf-8"?>
<!-- Generator: Adobe Illustrator 25.3.1, SVG Export Plug-In . SVG Version: 6.00 Build 0)  -->
<svg version="1.1" id="BG" xmlns="http://www.w3.org/2000/svg" xmlns:xlink="http://www.w3.org/1999/xlink" x="0px" y="0px"
	 viewBox="0 0 676.5 647.2" style="enable-background:new 0 0 676.5 647.2;" xml:space="preserve">
<style type="text/css">
	.st0{fill:none;stroke:#FFFFFF;stroke-miterlimit:10;}
	.st1{fill:url(#SVGID_1_);stroke:#FFFFFF;stroke-miterlimit:10;}
	.st2{fill:url(#SVGID_2_);stroke:#FFFFFF;stroke-miterlimit:10;}
	.st3{fill:url(#SVGID_3_);stroke:#FFFFFF;stroke-miterlimit:10;}
	.st4{fill:url(#SVGID_4_);stroke:#FFFFFF;stroke-miterlimit:10;}
	.st5{fill:url(#SVGID_5_);stroke:#FFFFFF;stroke-miterlimit:10;}
	.st6{fill:url(#SVGID_6_);stroke:#FFFFFF;stroke-miterlimit:10;}
	.st7{fill:url(#SVGID_7_);stroke:#FFFFFF;stroke-miterlimit:10;}
	.st8{fill:url(#SVGID_8_);stroke:#FFFFFF;stroke-miterlimit:10;}
	.st9{fill:url(#SVGID_9_);stroke:#FFFFFF;stroke-miterlimit:10;}
	.st10{fill:url(#SVGID_10_);stroke:#FFFFFF;stroke-miterlimit:10;}
	.st11{fill:url(#SVGID_11_);stroke:#FFFFFF;stroke-miterlimit:10;}
	.st12{fill:url(#SVGID_12_);stroke:#FFFFFF;stroke-miterlimit:10;}
</style>
<g>
	<circle class="st0" cx="264.6" cy="403.6" r="24.6"/>
	<path class="st0" d="M377.3,274.2h24.6c13.6,0,24.6,11,24.6,24.6c0-13.6,11-24.6,24.6-24.6h-46.6c-1.5,0-2.7-1.2-2.7-2.7v-22
		C401.9,263.2,390.9,274.2,377.3,274.2z"/>
	
		<linearGradient id="SVGID_1_" gradientUnits="userSpaceOnUse" x1="18.2296" y1="233.1595" x2="264.6396" y2="233.1595" gradientTransform="matrix(1 0 0 -1 0 752.8792)">
		<stop  offset="0" style="stop-color:#053354"/>
		<stop  offset="0.2017" style="stop-color:#053659"/>
		<stop  offset="0.4398" style="stop-color:#044067"/>
		<stop  offset="0.6964" style="stop-color:#02507F"/>
		<stop  offset="0.9643" style="stop-color:#0067A0"/>
		<stop  offset="1" style="stop-color:#006AA5"/>
	</linearGradient>
	<path class="st1" d="M152,530.3v-124c0-1.5-1.2-2.7-2.7-2.7H18.5c-0.2,0-0.3,0.1-0.3,0.3v229.2c0,1.5,1.2,2.7,2.7,2.7H262
		c1.5,0,2.7-1.2,2.7-2.7v-97.5c0-1.5-1.2-2.7-2.7-2.7H154.7C153.2,533,152,531.8,152,530.3z"/>
	
		<linearGradient id="SVGID_2_" gradientUnits="userSpaceOnUse" x1="151.9982" y1="284.5746" x2="426.5775" y2="284.5746" gradientTransform="matrix(1 0 0 -1 0 752.8792)">
		<stop  offset="0" style="stop-color:#053354"/>
		<stop  offset="0.2017" style="stop-color:#053659"/>
		<stop  offset="0.4398" style="stop-color:#044067"/>
		<stop  offset="0.6964" style="stop-color:#02507F"/>
		<stop  offset="0.9643" style="stop-color:#0067A0"/>
		<stop  offset="1" style="stop-color:#006AA5"/>
	</linearGradient>
	<path class="st2" d="M264.6,406.3v124c0,1.5,1.2,2.7,2.7,2.7h156.6c1.5,0,2.7-1.2,2.7-2.7v-124c0-1.5-1.2-2.7-2.7-2.7H267.3
		C265.8,403.6,264.6,404.8,264.6,406.3z"/>
	
		<linearGradient id="SVGID_3_" gradientUnits="userSpaceOnUse" x1="151.9996" y1="413.9446" x2="426.5786" y2="413.9446" gradientTransform="matrix(1 0 0 -1 0 752.8792)">
		<stop  offset="0" style="stop-color:#053354"/>
		<stop  offset="0.2017" style="stop-color:#053659"/>
		<stop  offset="0.4398" style="stop-color:#044067"/>
		<stop  offset="0.6964" style="stop-color:#02507F"/>
		<stop  offset="0.9643" style="stop-color:#0067A0"/>
		<stop  offset="1" style="stop-color:#006AA5"/>
	</linearGradient>
	<path class="st3" d="M264.6,401V276.9c0-1.5-1.2-2.7-2.7-2.7H154.7c-1.5,0-2.7,1.2-2.7,2.7V401c0,1.5,1.2,2.7,2.7,2.7H262
		C263.5,403.6,264.6,402.4,264.6,401z"/>
	
		<linearGradient id="SVGID_4_" gradientUnits="userSpaceOnUse" x1="18.2291" y1="284.5746" x2="264.6462" y2="284.5746" gradientTransform="matrix(1 0 0 -1 0 752.8792)">
		<stop  offset="0" style="stop-color:#053354"/>
		<stop  offset="0.2017" style="stop-color:#053659"/>
		<stop  offset="0.4398" style="stop-color:#044067"/>
		<stop  offset="0.6964" style="stop-color:#02507F"/>
		<stop  offset="0.9643" style="stop-color:#0067A0"/>
		<stop  offset="1" style="stop-color:#006AA5"/>
	</linearGradient>
	<path class="st4" d="M262,403.6H154.7c-1.5,0-2.7,1.2-2.7,2.7v124c0,1.5,1.2,2.7,2.7,2.7H262c1.5,0,2.7-1.2,2.7-2.7v-124
		C264.6,404.8,263.5,403.6,262,403.6z"/>
	
		<linearGradient id="SVGID_5_" gradientUnits="userSpaceOnUse" x1="151.9996" y1="284.5746" x2="426.5786" y2="284.5746" gradientTransform="matrix(1 0 0 -1 0 752.8792)">
		<stop  offset="0" style="stop-color:#053354"/>
		<stop  offset="0.2017" style="stop-color:#053659"/>
		<stop  offset="0.4398" style="stop-color:#044067"/>
		<stop  offset="0.6964" style="stop-color:#02507F"/>
		<stop  offset="0.9643" style="stop-color:#0067A0"/>
		<stop  offset="1" style="stop-color:#006AA5"/>
	</linearGradient>
	<path class="st5" d="M262,403.6H154.7c-1.5,0-2.7,1.2-2.7,2.7v124c0,1.5,1.2,2.7,2.7,2.7H262c1.5,0,2.7-1.2,2.7-2.7v-124
		C264.6,404.8,263.5,403.6,262,403.6z"/>
	
		<linearGradient id="SVGID_6_" gradientUnits="userSpaceOnUse" x1="264.6462" y1="413.9446" x2="539.2253" y2="413.9446" gradientTransform="matrix(1 0 0 -1 0 752.8792)">
		<stop  offset="0" style="stop-color:#053354"/>
		<stop  offset="0.2017" style="stop-color:#053659"/>
		<stop  offset="0.4398" style="stop-color:#044067"/>
		<stop  offset="0.6964" style="stop-color:#02507F"/>
		<stop  offset="0.9643" style="stop-color:#0067A0"/>
		<stop  offset="1" style="stop-color:#006AA5"/>
	</linearGradient>
	<path class="st6" d="M426.6,276.9V401c0,1.5,1.2,2.7,2.7,2.7h107.3c1.5,0,2.7-1.2,2.7-2.7V276.9c0-1.5-1.2-2.7-2.7-2.7H429.2
		C427.8,274.2,426.6,275.4,426.6,276.9z"/>
	
		<linearGradient id="SVGID_7_" gradientUnits="userSpaceOnUse" x1="264.6496" y1="543.3146" x2="539.2296" y2="543.3146" gradientTransform="matrix(1 0 0 -1 0 752.8792)">
		<stop  offset="0" style="stop-color:#053354"/>
		<stop  offset="0.2017" style="stop-color:#053659"/>
		<stop  offset="0.4398" style="stop-color:#044067"/>
		<stop  offset="0.6964" style="stop-color:#02507F"/>
		<stop  offset="0.9643" style="stop-color:#0067A0"/>
		<stop  offset="1" style="stop-color:#006AA5"/>
	</linearGradient>
	<path class="st7" d="M401.9,271.6V147.5c0-1.5-1.2-2.7-2.7-2.7h-132c-1.5,0-2.7,1.2-2.7,2.7v124.1c0,1.5,1.2,2.7,2.7,2.7h132
		C400.7,274.2,401.9,273.1,401.9,271.6z"/>
	
		<linearGradient id="SVGID_8_" gradientUnits="userSpaceOnUse" x1="151.9982" y1="413.9446" x2="426.5775" y2="413.9446" gradientTransform="matrix(1 0 0 -1 0 752.8792)">
		<stop  offset="0" style="stop-color:#053354"/>
		<stop  offset="0.2017" style="stop-color:#053659"/>
		<stop  offset="0.4398" style="stop-color:#044067"/>
		<stop  offset="0.6964" style="stop-color:#02507F"/>
		<stop  offset="0.9643" style="stop-color:#0067A0"/>
		<stop  offset="1" style="stop-color:#006AA5"/>
	</linearGradient>
	<path class="st8" d="M423.9,274.2h-46.6h-110c-1.5,0-2.7,1.2-2.7,2.7V401c0,1.5,1.2,2.7,2.7,2.7h156.6c1.5,0,2.7-1.2,2.7-2.7V276.9
		C426.6,275.4,425.4,274.2,423.9,274.2z"/>
	
		<linearGradient id="SVGID_9_" gradientUnits="userSpaceOnUse" x1="264.6496" y1="413.9446" x2="539.2287" y2="413.9446" gradientTransform="matrix(1 0 0 -1 0 752.8792)">
		<stop  offset="0" style="stop-color:#053354"/>
		<stop  offset="0.2017" style="stop-color:#053659"/>
		<stop  offset="0.4398" style="stop-color:#044067"/>
		<stop  offset="0.6964" style="stop-color:#02507F"/>
		<stop  offset="0.9643" style="stop-color:#0067A0"/>
		<stop  offset="1" style="stop-color:#006AA5"/>
	</linearGradient>
	<path class="st9" d="M423.9,274.2h-46.6h-110c-1.5,0-2.7,1.2-2.7,2.7V401c0,1.5,1.2,2.7,2.7,2.7h156.6c1.5,0,2.7-1.2,2.7-2.7V276.9
		C426.6,275.4,425.4,274.2,423.9,274.2z"/>
	
		<linearGradient id="SVGID_10_" gradientUnits="userSpaceOnUse" x1="401.9396" y1="607.9996" x2="676.5195" y2="607.9996" gradientTransform="matrix(1 0 0 -1 0 752.8792)">
		<stop  offset="0" style="stop-color:#053354"/>
		<stop  offset="0.2017" style="stop-color:#053659"/>
		<stop  offset="0.4398" style="stop-color:#044067"/>
		<stop  offset="0.6964" style="stop-color:#02507F"/>
		<stop  offset="0.9643" style="stop-color:#0067A0"/>
		<stop  offset="1" style="stop-color:#006AA5"/>
	</linearGradient>
	<path class="st10" d="M673.8,15.5H404.6c-1.5,0-2.7,1.2-2.7,2.7v124.1c0,1.5,1.2,2.7,2.7,2.7h132c1.5,0,2.7,1.2,2.7,2.7v124.1
		c0,1.5,1.2,2.7,2.7,2.7h132c1.5,0,2.7-1.2,2.7-2.7V18.2C676.5,16.7,675.3,15.5,673.8,15.5z"/>
	
		<linearGradient id="SVGID_11_" gradientUnits="userSpaceOnUse" x1="264.6595" y1="543.3146" x2="539.2196" y2="543.3146" gradientTransform="matrix(1 0 0 -1 0 752.8792)">
		<stop  offset="0" style="stop-color:#053354"/>
		<stop  offset="0.2017" style="stop-color:#053659"/>
		<stop  offset="0.4398" style="stop-color:#044067"/>
		<stop  offset="0.6964" style="stop-color:#02507F"/>
		<stop  offset="0.9643" style="stop-color:#0067A0"/>
		<stop  offset="1" style="stop-color:#006AA5"/>
	</linearGradient>
	<path class="st11" d="M536.6,144.9h-132c-1.5,0-2.7,1.2-2.7,2.7v102.1v22c0,1.5,1.2,2.7,2.7,2.7h46.6h85.3c1.5,0,2.7-1.2,2.7-2.7
		V147.5C539.2,146.1,538,144.9,536.6,144.9z"/>
	
		<linearGradient id="SVGID_12_" gradientUnits="userSpaceOnUse" x1="401.9396" y1="543.3146" x2="676.4996" y2="543.3146" gradientTransform="matrix(1 0 0 -1 0 752.8792)">
		<stop  offset="0" style="stop-color:#053354"/>
		<stop  offset="0.2017" style="stop-color:#053659"/>
		<stop  offset="0.4398" style="stop-color:#044067"/>
		<stop  offset="0.6964" style="stop-color:#02507F"/>
		<stop  offset="0.9643" style="stop-color:#0067A0"/>
		<stop  offset="1" style="stop-color:#006AA5"/>
	</linearGradient>
	<path class="st12" d="M536.6,144.9h-132c-1.5,0-2.7,1.2-2.7,2.7v102.1v22c0,1.5,1.2,2.7,2.7,2.7h46.6h85.3c1.5,0,2.7-1.2,2.7-2.7
		V147.5C539.2,146.1,538,144.9,536.6,144.9z"/>
</g>
</svg>
