<?xml version="1.0" encoding="utf-8"?>
<!-- Generator: Adobe Illustrator 25.4.0, SVG Export Plug-In . SVG Version: 6.00 Build 0)  -->
<svg version="1.1" id="BG" xmlns="http://www.w3.org/2000/svg" xmlns:xlink="http://www.w3.org/1999/xlink" x="0px" y="0px"
	 viewBox="0 0 676.5 651.1" style="enable-background:new 0 0 676.5 651.1;" xml:space="preserve">
<style type="text/css">
	.st0{fill:none;stroke:#FFFFFF;stroke-miterlimit:10;}
	.st1{fill:url(#SVGID_1_);stroke:#FFFFFF;stroke-miterlimit:10;}
	.st2{fill:url(#SVGID_00000073699370062666326220000008427320500053909906_);stroke:#FFFFFF;stroke-miterlimit:10;}
	.st3{fill:url(#SVGID_00000134247397325528943080000011530799581754155407_);stroke:#FFFFFF;stroke-miterlimit:10;}
	.st4{fill:url(#SVGID_00000051384825888231363900000013149279330213816205_);stroke:#FFFFFF;stroke-miterlimit:10;}
	.st5{fill:url(#SVGID_00000026122477445992929970000005381986526080896680_);stroke:#FFFFFF;stroke-miterlimit:10;}
	.st6{fill:url(#SVGID_00000052785164730398220000000016136397983865134007_);stroke:#FFFFFF;stroke-miterlimit:10;}
	.st7{fill:url(#SVGID_00000031201394258308000640000008862451521059921280_);stroke:#FFFFFF;stroke-miterlimit:10;}
	.st8{fill:url(#SVGID_00000140015422404700797400000012163304244638908049_);stroke:#FFFFFF;stroke-miterlimit:10;}
	.st9{fill:url(#SVGID_00000181061839424034738930000003454996300908393377_);stroke:#FFFFFF;stroke-miterlimit:10;}
	.st10{fill:url(#SVGID_00000020378936063929693860000008529706477456979614_);stroke:#FFFFFF;stroke-miterlimit:10;}
	.st11{fill:url(#SVGID_00000005242626185996313100000011416562185279712953_);stroke:#FFFFFF;stroke-miterlimit:10;}
	.st12{fill:url(#SVGID_00000145036328040149873930000016516488409151134595_);stroke:#FFFFFF;stroke-miterlimit:10;}
	
		.st13{fill:url(#SVGID_00000080187725308940441480000002448675604420867251_);stroke:#FFFFFF;stroke-width:1.2293;stroke-miterlimit:10;}
	
		.st14{fill:url(#SVGID_00000122689901490613413450000017838704014067876484_);stroke:#FFFFFF;stroke-width:1.2293;stroke-miterlimit:10;}
	
		.st15{fill:url(#SVGID_00000089567571518342043650000013598318116409143446_);stroke:#FFFFFF;stroke-width:1.2293;stroke-miterlimit:10;}
	
		.st16{fill:url(#SVGID_00000080204574108911767850000016475227274659885212_);stroke:#FFFFFF;stroke-width:1.2293;stroke-miterlimit:10;}
	
		.st17{fill:url(#SVGID_00000042705273473313161890000001497292960223424190_);stroke:#FFFFFF;stroke-width:0.9807;stroke-miterlimit:10;}
	
		.st18{fill:url(#SVGID_00000065788169329232570860000003879408196952266934_);stroke:#FFFFFF;stroke-width:1.2293;stroke-miterlimit:10;}
	
		.st19{fill:url(#SVGID_00000027564725141981698020000018081300318342792374_);stroke:#FFFFFF;stroke-width:1.2293;stroke-miterlimit:10;}
	
		.st20{fill:url(#SVGID_00000163772861084206477100000008148990626703870389_);stroke:#FFFFFF;stroke-width:1.2293;stroke-miterlimit:10;}
	
		.st21{fill:url(#SVGID_00000021812044643165602170000008911906508130933637_);stroke:#FFFFFF;stroke-width:0.9807;stroke-miterlimit:10;}
	
		.st22{fill:url(#SVGID_00000110459008582302906880000000992291890697725574_);stroke:#FFFFFF;stroke-width:1.2293;stroke-miterlimit:10;}
	
		.st23{fill:url(#SVGID_00000175285652895210181330000015243059244975907731_);stroke:#FFFFFF;stroke-width:1.2293;stroke-miterlimit:10;}
	
		.st24{fill:url(#SVGID_00000057838843606745700890000014924379129401571758_);stroke:#FFFFFF;stroke-width:0.9807;stroke-miterlimit:10;}
</style>
<g>
	<circle class="st0" cx="-478.3" cy="334" r="24.6"/>
	<path class="st0" d="M-365.6,204.6h24.6c13.6,0,24.6,11,24.6,24.6c0-13.6,11-24.6,24.6-24.6h-46.6c-1.5,0-2.7-1.2-2.7-2.7v-22
		C-341,193.6-352,204.6-365.6,204.6z"/>
	
		<linearGradient id="SVGID_1_" gradientUnits="userSpaceOnUse" x1="-724.7258" y1="697.2532" x2="-478.2258" y2="697.2532" gradientTransform="matrix(1 0 0 1 0 -247.1208)">
		<stop  offset="0" style="stop-color:#053354"/>
		<stop  offset="0.2017" style="stop-color:#053659"/>
		<stop  offset="0.4398" style="stop-color:#044067"/>
		<stop  offset="0.6964" style="stop-color:#02507F"/>
		<stop  offset="0.9643" style="stop-color:#0067A0"/>
		<stop  offset="1" style="stop-color:#006AA5"/>
	</linearGradient>
	<path class="st1" d="M-590.9,460.7v-124c0-1.5-1.2-2.7-2.7-2.7h-130.8c-0.2,0-0.3,0.1-0.3,0.3v229.2c0,1.5,1.2,2.7,2.7,2.7h241.1
		c1.5,0,2.7-1.2,2.7-2.7V466c0-1.5-1.2-2.7-2.7-2.7h-107.3C-589.7,463.4-590.9,462.2-590.9,460.7z"/>
	
		<linearGradient id="SVGID_00000109751904029155726770000004843875520303944084_" gradientUnits="userSpaceOnUse" x1="-590.9276" y1="645.8532" x2="-316.3483" y2="645.8532" gradientTransform="matrix(1 0 0 1 0 -247.1208)">
		<stop  offset="0" style="stop-color:#053354"/>
		<stop  offset="0.2017" style="stop-color:#053659"/>
		<stop  offset="0.4398" style="stop-color:#044067"/>
		<stop  offset="0.6964" style="stop-color:#02507F"/>
		<stop  offset="0.9643" style="stop-color:#0067A0"/>
		<stop  offset="1" style="stop-color:#006AA5"/>
	</linearGradient>
	<path style="fill:url(#SVGID_00000109751904029155726770000004843875520303944084_);stroke:#FFFFFF;stroke-miterlimit:10;" d="
		M-478.3,336.7v124c0,1.5,1.2,2.7,2.7,2.7H-319c1.5,0,2.7-1.2,2.7-2.7v-124c0-1.5-1.2-2.7-2.7-2.7h-156.6
		C-477.1,334-478.3,335.2-478.3,336.7z"/>
	
		<linearGradient id="SVGID_00000066506952246427225930000016821668504037794960_" gradientUnits="userSpaceOnUse" x1="-590.9258" y1="516.5032" x2="-316.3468" y2="516.5032" gradientTransform="matrix(1 0 0 1 0 -247.1208)">
		<stop  offset="0" style="stop-color:#053354"/>
		<stop  offset="0.2017" style="stop-color:#053659"/>
		<stop  offset="0.4398" style="stop-color:#044067"/>
		<stop  offset="0.6964" style="stop-color:#02507F"/>
		<stop  offset="0.9643" style="stop-color:#0067A0"/>
		<stop  offset="1" style="stop-color:#006AA5"/>
	</linearGradient>
	<path style="fill:url(#SVGID_00000066506952246427225930000016821668504037794960_);stroke:#FFFFFF;stroke-miterlimit:10;" d="
		M-478.3,331.4V207.3c0-1.5-1.2-2.7-2.7-2.7h-107.2c-1.5,0-2.7,1.2-2.7,2.7v124.1c0,1.5,1.2,2.7,2.7,2.7h107.3
		C-479.4,334-478.3,332.8-478.3,331.4z"/>
	
		<linearGradient id="SVGID_00000026843517763775719460000001497757729064770438_" gradientUnits="userSpaceOnUse" x1="-724.6967" y1="645.8533" x2="-478.2796" y2="645.8533" gradientTransform="matrix(1 0 0 1 0 -247.1208)">
		<stop  offset="0" style="stop-color:#053354"/>
		<stop  offset="0.2017" style="stop-color:#053659"/>
		<stop  offset="0.4398" style="stop-color:#044067"/>
		<stop  offset="0.6964" style="stop-color:#02507F"/>
		<stop  offset="0.9643" style="stop-color:#0067A0"/>
		<stop  offset="1" style="stop-color:#006AA5"/>
	</linearGradient>
	<path style="fill:url(#SVGID_00000026843517763775719460000001497757729064770438_);stroke:#FFFFFF;stroke-miterlimit:10;" d="
		M-480.9,334h-107.3c-1.5,0-2.7,1.2-2.7,2.7v124c0,1.5,1.2,2.7,2.7,2.7h107.3c1.5,0,2.7-1.2,2.7-2.7v-124
		C-478.3,335.2-479.4,334-480.9,334z"/>
	
		<linearGradient id="SVGID_00000076596277279479308330000015875075492385111432_" gradientUnits="userSpaceOnUse" x1="-590.9258" y1="645.8533" x2="-316.3468" y2="645.8533" gradientTransform="matrix(1 0 0 1 0 -247.1208)">
		<stop  offset="0" style="stop-color:#053354"/>
		<stop  offset="0.2017" style="stop-color:#053659"/>
		<stop  offset="0.4398" style="stop-color:#044067"/>
		<stop  offset="0.6964" style="stop-color:#02507F"/>
		<stop  offset="0.9643" style="stop-color:#0067A0"/>
		<stop  offset="1" style="stop-color:#006AA5"/>
	</linearGradient>
	<path style="fill:url(#SVGID_00000076596277279479308330000015875075492385111432_);stroke:#FFFFFF;stroke-miterlimit:10;" d="
		M-480.9,334h-107.3c-1.5,0-2.7,1.2-2.7,2.7v124c0,1.5,1.2,2.7,2.7,2.7h107.3c1.5,0,2.7-1.2,2.7-2.7v-124
		C-478.3,335.2-479.4,334-480.9,334z"/>
	
		<linearGradient id="SVGID_00000172434093940782177220000013205224369683377320_" gradientUnits="userSpaceOnUse" x1="-478.2796" y1="516.5032" x2="-203.7005" y2="516.5032" gradientTransform="matrix(1 0 0 1 0 -247.1208)">
		<stop  offset="0" style="stop-color:#053354"/>
		<stop  offset="0.2017" style="stop-color:#053659"/>
		<stop  offset="0.4398" style="stop-color:#044067"/>
		<stop  offset="0.6964" style="stop-color:#02507F"/>
		<stop  offset="0.9643" style="stop-color:#0067A0"/>
		<stop  offset="1" style="stop-color:#006AA5"/>
	</linearGradient>
	<path style="fill:url(#SVGID_00000172434093940782177220000013205224369683377320_);stroke:#FFFFFF;stroke-miterlimit:10;" d="
		M-316.3,207.3v124.1c0,1.5,1.2,2.7,2.7,2.7h107.3c1.5,0,2.7-1.2,2.7-2.7V207.3c0-1.5-1.2-2.7-2.7-2.7h-107.4
		C-315.1,204.6-316.3,205.8-316.3,207.3z"/>
	
		<linearGradient id="SVGID_00000153700969869848756060000001946200655102219396_" gradientUnits="userSpaceOnUse" x1="-478.2762" y1="387.1032" x2="-203.6962" y2="387.1032" gradientTransform="matrix(1 0 0 1 0 -247.1208)">
		<stop  offset="0" style="stop-color:#053354"/>
		<stop  offset="0.2017" style="stop-color:#053659"/>
		<stop  offset="0.4398" style="stop-color:#044067"/>
		<stop  offset="0.6964" style="stop-color:#02507F"/>
		<stop  offset="0.9643" style="stop-color:#0067A0"/>
		<stop  offset="1" style="stop-color:#006AA5"/>
	</linearGradient>
	<path style="fill:url(#SVGID_00000153700969869848756060000001946200655102219396_);stroke:#FFFFFF;stroke-miterlimit:10;" d="
		M-341,202V77.9c0-1.5-1.2-2.7-2.7-2.7h-132c-1.5,0-2.7,1.2-2.7,2.7V202c0,1.5,1.2,2.7,2.7,2.7h132C-342.2,204.6-341,203.5-341,202z
		"/>
	
		<linearGradient id="SVGID_00000031923259482365453220000004595866999282622352_" gradientUnits="userSpaceOnUse" x1="-590.9276" y1="516.5032" x2="-316.3483" y2="516.5032" gradientTransform="matrix(1 0 0 1 0 -247.1208)">
		<stop  offset="0" style="stop-color:#053354"/>
		<stop  offset="0.2017" style="stop-color:#053659"/>
		<stop  offset="0.4398" style="stop-color:#044067"/>
		<stop  offset="0.6964" style="stop-color:#02507F"/>
		<stop  offset="0.9643" style="stop-color:#0067A0"/>
		<stop  offset="1" style="stop-color:#006AA5"/>
	</linearGradient>
	<path style="fill:url(#SVGID_00000031923259482365453220000004595866999282622352_);stroke:#FFFFFF;stroke-miterlimit:10;" d="
		M-319,204.6h-46.6h-110c-1.5,0-2.7,1.2-2.7,2.7v124.1c0,1.5,1.2,2.7,2.7,2.7H-319c1.5,0,2.7-1.2,2.7-2.7V207.3
		C-316.3,205.8-317.5,204.6-319,204.6z"/>
	
		<linearGradient id="SVGID_00000160901527727578896480000002697330856376193179_" gradientUnits="userSpaceOnUse" x1="-478.3258" y1="516.5032" x2="-203.7467" y2="516.5032" gradientTransform="matrix(1 0 0 1 0 -247.1208)">
		<stop  offset="0" style="stop-color:#053354"/>
		<stop  offset="0.2017" style="stop-color:#053659"/>
		<stop  offset="0.4398" style="stop-color:#044067"/>
		<stop  offset="0.6964" style="stop-color:#02507F"/>
		<stop  offset="0.9643" style="stop-color:#0067A0"/>
		<stop  offset="1" style="stop-color:#006AA5"/>
	</linearGradient>
	<path style="fill:url(#SVGID_00000160901527727578896480000002697330856376193179_);stroke:#FFFFFF;stroke-miterlimit:10;" d="
		M-319,204.6h-46.6h-110c-1.5,0-2.7,1.2-2.7,2.7v124.1c0,1.5,1.2,2.7,2.7,2.7H-319c1.5,0,2.7-1.2,2.7-2.7V207.3
		C-316.3,205.8-317.5,204.6-319,204.6z"/>
	
		<linearGradient id="SVGID_00000053538490360384783710000004926834270129795995_" gradientUnits="userSpaceOnUse" x1="-341.0258" y1="322.5532" x2="-66.2258" y2="322.5532" gradientTransform="matrix(1 0 0 1 0 -247.1208)">
		<stop  offset="0" style="stop-color:#053354"/>
		<stop  offset="0.2017" style="stop-color:#053659"/>
		<stop  offset="0.4398" style="stop-color:#044067"/>
		<stop  offset="0.6964" style="stop-color:#02507F"/>
		<stop  offset="0.9643" style="stop-color:#0067A0"/>
		<stop  offset="1" style="stop-color:#006AA5"/>
	</linearGradient>
	<path style="fill:url(#SVGID_00000053538490360384783710000004926834270129795995_);stroke:#FFFFFF;stroke-miterlimit:10;" d="
		M-69.1-54.1h-269.2c-1.5,0-2.7,1.2-2.7,2.7V72.7c0,1.5,1.2,2.7,2.7,2.7h132c1.5,0,2.7,1.2,2.7,2.7v124.1c0,1.5,1.2,2.7,2.7,2.7h132
		c1.5,0,2.7-1.2,2.7-2.7V-51.4C-66.4-52.9-67.6-54.1-69.1-54.1z"/>
	
		<linearGradient id="SVGID_00000168076399020255468740000016264100253074107314_" gradientUnits="userSpaceOnUse" x1="-478.3259" y1="387.2032" x2="-203.7258" y2="387.2032" gradientTransform="matrix(1 0 0 1 0 -247.1208)">
		<stop  offset="0" style="stop-color:#053354"/>
		<stop  offset="0.2017" style="stop-color:#053659"/>
		<stop  offset="0.4398" style="stop-color:#044067"/>
		<stop  offset="0.6964" style="stop-color:#02507F"/>
		<stop  offset="0.9643" style="stop-color:#0067A0"/>
		<stop  offset="1" style="stop-color:#006AA5"/>
	</linearGradient>
	<path style="fill:url(#SVGID_00000168076399020255468740000016264100253074107314_);stroke:#FFFFFF;stroke-miterlimit:10;" d="
		M-206.3,75.3h-132c-1.5,0-2.7,1.2-2.7,2.7v102.1v22c0,1.5,1.2,2.7,2.7,2.7h46.6h85.3c1.5,0,2.7-1.2,2.7-2.7V77.9
		C-203.7,76.5-204.9,75.3-206.3,75.3z"/>
	
		<linearGradient id="SVGID_00000150788611154107050410000011117354041600511900_" gradientUnits="userSpaceOnUse" x1="-341.0258" y1="387.2032" x2="-66.4258" y2="387.2032" gradientTransform="matrix(1 0 0 1 0 -247.1208)">
		<stop  offset="0" style="stop-color:#053354"/>
		<stop  offset="0.2017" style="stop-color:#053659"/>
		<stop  offset="0.4398" style="stop-color:#044067"/>
		<stop  offset="0.6964" style="stop-color:#02507F"/>
		<stop  offset="0.9643" style="stop-color:#0067A0"/>
		<stop  offset="1" style="stop-color:#006AA5"/>
	</linearGradient>
	<path style="fill:url(#SVGID_00000150788611154107050410000011117354041600511900_);stroke:#FFFFFF;stroke-miterlimit:10;" d="
		M-206.3,75.3h-132c-1.5,0-2.7,1.2-2.7,2.7v102.1v22c0,1.5,1.2,2.7,2.7,2.7h46.6h85.3c1.5,0,2.7-1.2,2.7-2.7V77.9
		C-203.7,76.5-204.9,75.3-206.3,75.3z"/>
</g>
<g>
	
		<linearGradient id="SVGID_00000022540708977667285990000009899863603391959682_" gradientUnits="userSpaceOnUse" x1="36.0439" y1="501.9604" x2="283.2572" y2="501.9604">
		<stop  offset="0" style="stop-color:#053354"/>
		<stop  offset="0.2017" style="stop-color:#053659"/>
		<stop  offset="0.4398" style="stop-color:#044067"/>
		<stop  offset="0.6964" style="stop-color:#02507F"/>
		<stop  offset="0.9643" style="stop-color:#0067A0"/>
		<stop  offset="1" style="stop-color:#006AA5"/>
	</linearGradient>
	
		<polygon style="fill:url(#SVGID_00000022540708977667285990000009899863603391959682_);stroke:#FFFFFF;stroke-width:1.2293;stroke-miterlimit:10;" points="
		159.7,382.4 36,382.4 36,621.5 283.3,621.5 283.3,502 159.7,502 	"/>
	
		<linearGradient id="SVGID_00000154395227914048063010000000246588714317120656_" gradientUnits="userSpaceOnUse" x1="159.6506" y1="322.6923" x2="406.8638" y2="322.6923">
		<stop  offset="0" style="stop-color:#053354"/>
		<stop  offset="0.2017" style="stop-color:#053659"/>
		<stop  offset="0.4398" style="stop-color:#044067"/>
		<stop  offset="0.6964" style="stop-color:#02507F"/>
		<stop  offset="0.9643" style="stop-color:#0067A0"/>
		<stop  offset="1" style="stop-color:#006AA5"/>
	</linearGradient>
	
		<rect x="159.7" y="262.9" style="fill:url(#SVGID_00000154395227914048063010000000246588714317120656_);stroke:#FFFFFF;stroke-width:1.2293;stroke-miterlimit:10;" width="123.6" height="119.5"/>
	
		<linearGradient id="SVGID_00000075151371640833946010000009508018582807302566_" gradientUnits="userSpaceOnUse" x1="159.6506" y1="442.2044" x2="406.8638" y2="442.2044">
		<stop  offset="0" style="stop-color:#053354"/>
		<stop  offset="0.2017" style="stop-color:#053659"/>
		<stop  offset="0.4398" style="stop-color:#044067"/>
		<stop  offset="0.6964" style="stop-color:#02507F"/>
		<stop  offset="0.9643" style="stop-color:#0067A0"/>
		<stop  offset="1" style="stop-color:#006AA5"/>
	</linearGradient>
	
		<rect x="283.3" y="382.4" style="fill:url(#SVGID_00000075151371640833946010000009508018582807302566_);stroke:#FFFFFF;stroke-width:1.2293;stroke-miterlimit:10;" width="123.6" height="119.5"/>
	
		<linearGradient id="SVGID_00000085249305672780867480000017685987047911235262_" gradientUnits="userSpaceOnUse" x1="36.0439" y1="442.2044" x2="283.2572" y2="442.2044">
		<stop  offset="0" style="stop-color:#053354"/>
		<stop  offset="0.2017" style="stop-color:#053659"/>
		<stop  offset="0.4398" style="stop-color:#044067"/>
		<stop  offset="0.6964" style="stop-color:#02507F"/>
		<stop  offset="0.9643" style="stop-color:#0067A0"/>
		<stop  offset="1" style="stop-color:#006AA5"/>
	</linearGradient>
	
		<rect x="159.7" y="382.4" style="fill:url(#SVGID_00000085249305672780867480000017685987047911235262_);stroke:#FFFFFF;stroke-width:1.2293;stroke-miterlimit:10;" width="123.6" height="119.5"/>
	
		<linearGradient id="SVGID_00000006675757210478504680000006135967606119337862_" gradientUnits="userSpaceOnUse" x1="159.6506" y1="442.2044" x2="406.8638" y2="442.2044">
		<stop  offset="0" style="stop-color:#053354"/>
		<stop  offset="0.2017" style="stop-color:#053659"/>
		<stop  offset="0.4398" style="stop-color:#044067"/>
		<stop  offset="0.6964" style="stop-color:#02507F"/>
		<stop  offset="0.9643" style="stop-color:#0067A0"/>
		<stop  offset="1" style="stop-color:#006AA5"/>
	</linearGradient>
	
		<rect x="159.7" y="382.4" style="fill:url(#SVGID_00000006675757210478504680000006135967606119337862_);stroke:#FFFFFF;stroke-width:0.9807;stroke-miterlimit:10;" width="123.6" height="119.5"/>
	
		<linearGradient id="SVGID_00000183957305823244984710000007436128212830881666_" gradientUnits="userSpaceOnUse" x1="283.2572" y1="203.1802" x2="530.4704" y2="203.1802">
		<stop  offset="0" style="stop-color:#053354"/>
		<stop  offset="0.2017" style="stop-color:#053659"/>
		<stop  offset="0.4398" style="stop-color:#044067"/>
		<stop  offset="0.6964" style="stop-color:#02507F"/>
		<stop  offset="0.9643" style="stop-color:#0067A0"/>
		<stop  offset="1" style="stop-color:#006AA5"/>
	</linearGradient>
	
		<rect x="283.3" y="143.4" style="fill:url(#SVGID_00000183957305823244984710000007436128212830881666_);stroke:#FFFFFF;stroke-width:1.2293;stroke-miterlimit:10;" width="123.6" height="119.5"/>
	
		<linearGradient id="SVGID_00000152986570408208861270000005081044125707505049_" gradientUnits="userSpaceOnUse" x1="283.2572" y1="322.6923" x2="530.4704" y2="322.6923">
		<stop  offset="0" style="stop-color:#053354"/>
		<stop  offset="0.2017" style="stop-color:#053659"/>
		<stop  offset="0.4398" style="stop-color:#044067"/>
		<stop  offset="0.6964" style="stop-color:#02507F"/>
		<stop  offset="0.9643" style="stop-color:#0067A0"/>
		<stop  offset="1" style="stop-color:#006AA5"/>
	</linearGradient>
	
		<rect x="406.9" y="262.9" style="fill:url(#SVGID_00000152986570408208861270000005081044125707505049_);stroke:#FFFFFF;stroke-width:1.2293;stroke-miterlimit:10;" width="123.6" height="119.5"/>
	
		<linearGradient id="SVGID_00000041987863440176803070000012230996070517145258_" gradientUnits="userSpaceOnUse" x1="159.6506" y1="322.6923" x2="406.8638" y2="322.6923">
		<stop  offset="0" style="stop-color:#053354"/>
		<stop  offset="0.2017" style="stop-color:#053659"/>
		<stop  offset="0.4398" style="stop-color:#044067"/>
		<stop  offset="0.6964" style="stop-color:#02507F"/>
		<stop  offset="0.9643" style="stop-color:#0067A0"/>
		<stop  offset="1" style="stop-color:#006AA5"/>
	</linearGradient>
	
		<rect x="283.3" y="262.9" style="fill:url(#SVGID_00000041987863440176803070000012230996070517145258_);stroke:#FFFFFF;stroke-width:1.2293;stroke-miterlimit:10;" width="123.6" height="119.5"/>
	
		<linearGradient id="SVGID_00000134234775342940127640000008884865483028634538_" gradientUnits="userSpaceOnUse" x1="283.2572" y1="322.6923" x2="530.4704" y2="322.6923">
		<stop  offset="0" style="stop-color:#053354"/>
		<stop  offset="0.2017" style="stop-color:#053659"/>
		<stop  offset="0.4398" style="stop-color:#044067"/>
		<stop  offset="0.6964" style="stop-color:#02507F"/>
		<stop  offset="0.9643" style="stop-color:#0067A0"/>
		<stop  offset="1" style="stop-color:#006AA5"/>
	</linearGradient>
	
		<rect x="283.3" y="262.9" style="fill:url(#SVGID_00000134234775342940127640000008884865483028634538_);stroke:#FFFFFF;stroke-width:0.9807;stroke-miterlimit:10;" width="123.6" height="119.5"/>
	
		<linearGradient id="SVGID_00000160166745074005197330000000962946465090297533_" gradientUnits="userSpaceOnUse" x1="406.8638" y1="143.4242" x2="654.0769" y2="143.4242">
		<stop  offset="0" style="stop-color:#053354"/>
		<stop  offset="0.2017" style="stop-color:#053659"/>
		<stop  offset="0.4398" style="stop-color:#044067"/>
		<stop  offset="0.6964" style="stop-color:#02507F"/>
		<stop  offset="0.9643" style="stop-color:#0067A0"/>
		<stop  offset="1" style="stop-color:#006AA5"/>
	</linearGradient>
	
		<polygon style="fill:url(#SVGID_00000160166745074005197330000000962946465090297533_);stroke:#FFFFFF;stroke-width:1.2293;stroke-miterlimit:10;" points="
		654.1,23.9 406.9,23.9 406.9,143.4 530.5,143.4 530.5,262.9 654.1,262.9 	"/>
	
		<linearGradient id="SVGID_00000108990019016379977680000003918838365984382899_" gradientUnits="userSpaceOnUse" x1="283.2572" y1="203.1802" x2="530.4704" y2="203.1802">
		<stop  offset="0" style="stop-color:#053354"/>
		<stop  offset="0.2017" style="stop-color:#053659"/>
		<stop  offset="0.4398" style="stop-color:#044067"/>
		<stop  offset="0.6964" style="stop-color:#02507F"/>
		<stop  offset="0.9643" style="stop-color:#0067A0"/>
		<stop  offset="1" style="stop-color:#006AA5"/>
	</linearGradient>
	
		<rect x="406.9" y="143.4" style="fill:url(#SVGID_00000108990019016379977680000003918838365984382899_);stroke:#FFFFFF;stroke-width:1.2293;stroke-miterlimit:10;" width="123.6" height="119.5"/>
	
		<linearGradient id="SVGID_00000127027340409848173990000014669103263466756533_" gradientUnits="userSpaceOnUse" x1="406.8638" y1="203.1802" x2="654.077" y2="203.1802">
		<stop  offset="0" style="stop-color:#053354"/>
		<stop  offset="0.2017" style="stop-color:#053659"/>
		<stop  offset="0.4398" style="stop-color:#044067"/>
		<stop  offset="0.6964" style="stop-color:#02507F"/>
		<stop  offset="0.9643" style="stop-color:#0067A0"/>
		<stop  offset="1" style="stop-color:#006AA5"/>
	</linearGradient>
	
		<rect x="406.9" y="143.4" style="fill:url(#SVGID_00000127027340409848173990000014669103263466756533_);stroke:#FFFFFF;stroke-width:0.9807;stroke-miterlimit:10;" width="123.6" height="119.5"/>
</g>
</svg>
