<?xml version="1.0" encoding="utf-8"?>
<!-- Generator: Adobe Illustrator 25.3.1, SVG Export Plug-In . SVG Version: 6.00 Build 0)  -->
<svg version="1.1" id="Layer_1" xmlns="http://www.w3.org/2000/svg" xmlns:xlink="http://www.w3.org/1999/xlink" x="0px" y="0px"
	 viewBox="0 0 844 280" style="enable-background:new 0 0 844 280;" xml:space="preserve">
<style type="text/css">
	.st0{fill:#009245;}
	.st1{fill:#F7931E;}
	.st2{fill:#FFFFFF;}
</style>
<g>
	<g>
		<path class="st0" d="M-277.1,133.8l-8.2-9l-4.7,5.2l2.4,2.7c4.1,4.5,4.1,11.9,0,16.4l-19.1,21c-4.1,4.5-10.8,4.5-14.9,0
			l-18.5-20.3c-4.1-4.5-4.1-11.9,0-16.4l19.1-21c4.1-4.5,10.8-4.5,14.9,0l1.9,2.1l4.7-5.2l-6.5-7.1c-4.1-4.5-10.8-4.5-14.9,0
			l-28.8,31.6c-4.1,4.5-4.1,11.9,0,16.4l28.7,31.6c4.1,4.5,10.8,4.5,14.9,0l28.8-31.6C-273,145.7-273,138.3-277.1,133.8z"/>
		<path class="st1" d="M-313.7,151.1l8.3,8.7l4.6-5.3l-2.5-2.6c-4.2-4.4-4.4-11.8-0.4-16.4l18.6-21.5c4-4.6,10.7-4.8,14.9-0.4
			l18.9,19.8c4.2,4.4,4.4,11.8,0.4,16.4l-18.6,21.5c-4,4.6-10.7,4.8-14.9,0.4l-2-2.1l-4.6,5.3l6.6,7c4.2,4.4,10.9,4.3,14.9-0.4
			l28.1-32.4c4-4.6,3.9-12-0.4-16.4l-29.4-30.8c-4.2-4.4-10.9-4.3-14.9,0.4l-28.1,32.4C-318.1,139.3-317.9,146.7-313.7,151.1z"/>
	</g>
	<text transform="matrix(0.7185 0 0 1 -240.5029 137.6909)" class="st2" style="font-family:'ArialMT'; font-size:67.5434px;">GVMS</text>
	<text transform="matrix(0.908 0 0 1 -203.4902 161.8022)" class="st2" style="font-family:'ArialMT'; font-size:23.645px;">Infogain</text>
	<text transform="matrix(0.7618 0 0 1 -234.853 185.2817)" style="fill:#006837; font-family:'ArialMT'; font-size:13.2779px;">A</text>
	<text transform="matrix(0.7618 0 0 1 -228.1064 185.2817)" style="fill:#006837; font-family:'ArialMT'; font-size:11.5372px;">LGORITHM, </text>
	<text transform="matrix(0.7618 0 0 1 -176.833 185.2817)" style="fill:#006837; font-family:'ArialMT'; font-size:13.2779px;">A</text>
	<text transform="matrix(0.7618 0 0 1 -170.0869 185.2817)" style="fill:#006837; font-family:'ArialMT'; font-size:11.5372px;">NALYTICS, </text>
	<text transform="matrix(0.7618 0 0 1 -122.2217 185.2817)" style="fill:#006837; font-family:'ArialMT'; font-size:13.2779px;">A</text>
	<text transform="matrix(0.7618 0 0 1 -115.4751 185.2817)" style="fill:#006837; font-family:'ArialMT'; font-size:11.5372px;">DVISOR</text>
</g>
<g>
	<g>
		<path class="st0" d="M239.4,114.5l-24.2-24.3l-13.9,14l7.2,7.3c12.2,12.3,12.2,32.2,0,44.5l-56.7,56.9
			c-12.2,12.3-32.1,12.3-44.3,0l-54.8-55c-12.2-12.3-12.2-32.2,0-44.5l56.7-56.9c12.2-12.3,32.1-12.3,44.3,0l5.7,5.8l13.9-14L154,29
			c-12.2-12.3-32.1-12.3-44.3,0l-85.5,85.8C12,127,12,146.9,24.3,159.2l85.3,85.6c12.2,12.3,32.1,12.3,44.3,0l85.5-85.8
			C251.6,146.7,251.6,126.8,239.4,114.5z"/>
		<path class="st1" d="M130.7,161.4l24.8,23.7l13.6-14.3l-7.4-7.1c-12.5-12-13-31.9-1.1-44.5L216,61c11.9-12.6,31.8-13,44.3-1
			l56.1,53.7c12.5,12,13,31.9,1,44.5l-55.3,58.2c-11.9,12.6-31.8,13.1-44.3,1.1l-5.9-5.6l-13.6,14.3L218,245
			c12.5,12,32.4,11.5,44.3-1.1l83.4-87.8c12-12.6,11.5-32.5-1-44.5L257.4,28c-12.5-12-32.4-11.5-44.3,1l-83.4,87.8
			C117.7,129.5,118.2,149.4,130.7,161.4z"/>
	</g>
	<g>
		<path class="st2" d="M426,34h-58v71h58V77h-30V64h42v31.8c0,9-1.2,15.1-3.7,18.3s-7,4.9-13.8,4.9h-48.1c-6.8,0-11.4-1.6-13.8-4.9
			s-3.6-9.4-3.6-18.3V44.2c0-8.9,1.2-15,3.6-18.3s7-4.9,13.8-4.9H421c6.6,0,11,1.5,13.4,4.6s3.6,8.7,3.6,16.8v2.3L426,48V34L426,34z
			"/>
		<path class="st2" d="M499.9,119l-40.8-99h13.4l33,82.5L537,20h12.4l-39.1,99H499.9z"/>
		<path class="st2" d="M583.5,40.6c0.2,1.9,0.3,3.8,0.4,5.9c0.1,2,0.1,4.8,0.1,8.1V119h-11V20h10.1l36,64.4L652.7,20H664v99h-11
			V54.6c0-0.8,0.1-3,0.2-6.4c0.2-3.4,0.3-6,0.3-7.6c-0.9,2.5-1.8,4.5-2.5,6.2s-1.4,3-1.9,4.1L620.9,104h-3.2l-29.4-51.7
			c0-0.1-0.2-0.3-0.3-0.6C586,47.9,584.5,44.2,583.5,40.6z"/>
		<path class="st2" d="M765.8,34H714v27h46.7c6.6,0,11.1,1.6,13.6,4.9c2.4,3.2,3.7,9.4,3.7,18.5v11.2c0,9.1-1.2,15.3-3.6,18.6
			c-2.4,3.3-6.9,4.9-13.6,4.9h-42.7c-7,0-11.8-1.6-14.3-4.9s-3.8-9.4-3.8-18.4V93l12-3.5V105h55V76h-46.7c-6.8,0-11.3-1.6-13.7-4.9
			s-3.6-9.4-3.6-18.4v-8.5c0-9,1.2-15.1,3.6-18.4s7-4.9,13.7-4.9h38.6c6.8,0,11.6,1.5,14.2,4.6S777,34,777,41.7v2l-11,3.9V34H765.8z
			"/>
	</g>
	<g>
		<path class="st1" d="M354.5,254l8.1-26h3l8.6,26h-3.1l-2.5-8h-8.9l-2.3,8H354.5z M360.6,243h7.1l-2.2-7.1
			c-0.7-2.2-1.2-3.9-1.5-5.3c-0.3,1.6-0.6,3.3-1.1,4.9L360.6,243z"/>
		<path class="st1" d="M376,254v-22h2v20h9v2H376z"/>
		<path class="st1" d="M399,245v-3h7v9c-1.1,1.2-2.3,2-3.6,2.6c-1.3,0.6-2.6,0.9-4.1,0.9c-1.9,0-3.6-0.5-5.1-1.4
			c-1.6-0.9-2.6-2.3-3.5-4.1c-0.7-1.8-1.2-3.8-1.2-6s0.4-4.2,1.2-6.1s1.9-3.3,3.4-4.2s3.2-1.4,5.1-1.4c1.4,0,2.6,0.3,3.7,0.8
			c1.2,0.5,2,1.2,2.6,2.2c0.6,0.9,1.2,2.2,1.5,3.7l-2.3,0.7c-0.3-1.1-0.6-2-1.1-2.7c-0.4-0.7-1.1-1.2-1.8-1.6
			c-0.8-0.4-1.7-0.6-2.6-0.6c-1.2,0-2.1,0.2-2.9,0.6c-0.8,0.4-1.5,1-2,1.6s-0.9,1.4-1.2,2.2c-0.5,1.4-0.7,2.9-0.7,4.5
			c0,2,0.3,3.7,0.8,5c0.6,1.3,1.5,2.3,2.5,3s2.3,1,3.6,1c1.1,0,2.1-0.2,3.2-0.7s2.5-1.6,2.5-1.6V245H399z"/>
		<path class="st1" d="M409,243.2c0-3.7,0.8-6.6,2.4-8.7c1.6-2.1,3.7-3.1,6.2-3.1c1.7,0,3.2,0.5,4.5,1.5s2.4,2.4,3.1,4.1
			c0.7,1.8,1.1,3.8,1.1,6c0,2.3-0.4,4.3-1.1,6.1s-1.8,3.1-3.1,4.1c-1.4,0.9-2.8,1.4-4.4,1.4c-1.7,0-3.2-0.5-4.6-1.5s-2.4-2.4-3-4.2
			S409,245.1,409,243.2z M411.5,243.2c0,2.7,0.6,4.8,1.8,6.4c1.2,1.6,2.6,2.3,4.4,2.3s3.3-0.8,4.5-2.4s1.8-3.8,1.8-6.7
			c0-1.8-0.2-3.4-0.8-4.8s-1.2-2.4-2.2-3.2s-2-1.1-3.2-1.1c-1.7,0-3.1,0.7-4.4,2.2C412.1,237.4,411.5,239.9,411.5,243.2z"/>
		<path class="st1" d="M430,254.1V232h7.9c1.6,0,2.8,0.2,3.6,0.6c0.8,0.4,1.5,1.1,2,2.1s0.7,2.1,0.7,3.3c0,1.6-0.4,2.9-1.2,3.9
			c-0.8,1.1-2.1,1.8-3.8,2c0.6,0.4,1.1,0.7,1.4,1.1c0.7,0.8,1.3,1.8,2,2.9l3.1,6h-3.4l-2.4-4.6c-0.7-1.3-1.3-2.4-1.7-3.1
			c-0.5-0.7-0.9-1.2-1.2-1.5c-0.4-0.3-0.7-0.5-1.1-0.6c-0.3-0.1-0.7-0.1-1.3-0.2H432v10L430,254.1L430,254.1z M432,241h4.8
			c1,0,1.8-0.1,2.4-0.4c0.6-0.3,1-0.7,1.3-1.3s0.5-1.2,0.5-1.9c0-1-0.3-1.8-0.9-2.5c-0.6-0.6-1.5-1-2.8-1H432V241z"/>
		<path class="st1" d="M448,254v-22h2v22H448z"/>
		<path class="st1" d="M459,254v-19h-6v-3h14v3h-6v19H459z"/>
		<path class="st1" d="M470,254v-22h2v9h10v-9h2v22h-2v-11h-10v11H470z"/>
		<path class="st1" d="M488,254.1V231h3.9l4.3,16.5c0.4,1.5,0.7,2.6,0.9,3.3c0.2-0.8,0.5-2,1-3.6l4.3-15.2h2.6v22h-2v-18.7l-5,18.7
			h-2.5l-5.5-19v19h-2L488,254.1L488,254.1z"/>
		<path class="st1" d="M509,254v-3h3v3.1c0.2,1.1,0.1,2.1-0.2,2.8c-0.3,0.7-0.9,1.2-1.6,1.6l-0.6-1.2c0.5-0.2,0.8-0.6,1-1.1
			s0.4-1.2,0.4-2.2L509,254L509,254z"/>
		<path class="st1" d="M521.4,254l8.1-26h3l8.6,26H538l-2.5-8h-8.9l-2.3,8H521.4z M527.5,243h7.1l-2.2-7.1c-0.7-2.2-1.2-3.9-1.5-5.3
			c-0.3,1.6-0.6,3.3-1.1,4.9L527.5,243z"/>
		<path class="st1" d="M543,254v-22h2.3l9.7,17.3V232h2v22h-2.4l-9.6-17.5V254H543z"/>
		<path class="st1" d="M559.3,254l6.8-22h2.5l7.3,22h-2.4l-2.2-7h-7.8l-2,7H559.3z M564.3,245h6.1l-1.9-6.2c-0.6-1.9-1-3.4-1.3-4.6
			c-0.2,1.4-0.6,2.9-1,4.3L564.3,245z"/>
		<path class="st1" d="M578,254v-22h2v20h9v2H578z"/>
		<path class="st1" d="M595,254.1v-9.5l-6.7-13.6h2.9l3.6,7.4c0.7,1.3,1.3,2.5,1.8,3.8c0.5-1.2,1.2-2.5,2-4l3.5-6.2h2.8l-7.9,12.6
			v9.4h-2L595,254.1L595,254.1z"/>
		<path class="st1" d="M612,254v-19h-6v-3h14v3h-6v19H612z"/>
		<path class="st1" d="M623,254v-22h2v22H623z"/>
		<path class="st1" d="M642.4,246.2l2.4,0.8c-0.5,2.4-1.4,4.3-2.7,5.6s-2.9,1.9-4.8,1.9c-2,0-3.5-0.5-4.8-1.5s-2.2-2.4-2.8-4.3
			c-0.6-1.9-1-3.9-1-6c0-2.3,0.4-4.4,1.1-6.1c0.7-1.7,1.7-3.1,3.1-4c1.3-0.9,2.8-1.4,4.4-1.4c1.8,0,3.3,0.6,4.6,1.7s2.1,2.7,2.6,4.8
			l-2.4,0.7c-0.4-1.6-1-2.8-1.8-3.6c-0.8-0.7-1.8-1.1-3-1.1c-1.4,0-2.5,0.4-3.5,1.2c-0.9,0.8-1.6,1.9-2,3.3
			c-0.4,1.4-0.6,2.8-0.6,4.3c0,1.9,0.2,3.6,0.7,5s1.2,2.5,2.1,3.2c1,0.7,2,1.1,3.1,1.1c1.3,0,2.5-0.5,3.4-1.4
			S642.1,248.1,642.4,246.2z"/>
		<path class="st1" d="M646.9,246.9l2.3-0.2c0.1,1.1,0.4,2,0.8,2.8s1,1.3,1.8,1.7s1.8,0.7,2.8,0.7c0.9,0,1.7-0.2,2.4-0.5
			s1.2-0.8,1.6-1.4s0.5-1.2,0.5-1.9s-0.2-1.3-0.5-1.8s-0.9-1-1.6-1.3c-0.5-0.2-1.6-0.6-3.2-1.1c-1.7-0.5-2.8-1-3.5-1.4
			c-0.9-0.6-1.5-1.2-1.9-2.1s-0.6-1.8-0.6-2.8c0-1.1,0.3-2.2,0.8-3.2s1.3-1.7,2.3-2.2s2.1-0.8,3.3-0.8c1.3,0,2.5,0.3,3.5,0.8
			s1.8,1.3,2.4,2.4s0.8,2.2,0.9,3.5l-2.3,0.2c-0.1-1.4-0.5-2.5-1.2-3.2s-1.8-1.1-3.2-1.1c-1.5,0-2.5,0.3-3.2,1s-1,1.4-1,2.4
			c0,0.8,0.2,1.5,0.7,2s1.7,1.1,3.6,1.6c2,0.5,3.3,1,4,1.4c1,0.6,1.8,1.4,2.3,2.3s0.8,2,0.8,3.2s-0.3,2.3-0.8,3.4
			c-0.5,1.1-1.3,1.9-2.4,2.5c-1,0.6-2.2,0.9-3.5,0.9c-1.6,0-3-0.3-4.1-0.9s-2-1.5-2.6-2.7C647.3,249.7,647,248.4,646.9,246.9z"/>
		<path class="st1" d="M665,254v-3h3v3.1c-0.6,1.1-0.8,2.1-1.1,2.8s-0.8,1.2-1.6,1.6l-0.6-1.2c0.5-0.2,0.8-0.6,1-1.1
			s0.3-1.2,0.4-2.2L665,254L665,254z"/>
		<path class="st1" d="M676.6,254l8.1-26h3l8.6,26h-3.1l-2.5-8h-8.9l-2.3,8H676.6z M682.7,243h7.1l-2.2-7.1
			c-0.7-2.2-1.2-3.9-1.5-5.3c-0.3,1.6-0.6,3.3-1.1,4.9L682.7,243z"/>
		<path class="st1" d="M698,254v-22h6.1c1.4,0,2.4,0.1,3.2,0.3c1,0.3,1.9,0.8,2.6,1.6c0.9,1,1.6,2.2,2.1,3.8
			c0.5,1.5,0.7,3.3,0.7,5.2c0,1.7-0.2,3.1-0.5,4.4c-0.3,1.3-0.7,2.4-1.2,3.2c-0.5,0.9-1,1.5-1.6,2s-1.3,0.9-2.1,1.1
			s-1.8,0.4-2.9,0.4H698L698,254z M700,251h3.8c1.2,0,2.1-0.1,2.8-0.4s1.2-0.7,1.6-1.1c0.6-0.7,1-1.6,1.3-2.8s0.5-2.6,0.5-4.3
			c0-2.3-0.3-4.1-0.9-5.4s-1.4-2.1-2.2-2.5c-0.6-0.3-1.7-0.5-3.1-0.5H700V251z"/>
		<path class="st1" d="M721.5,254l-6.9-22h2.5l4.6,16c0.4,1.3,0.7,2.5,0.9,3.6c0.3-1.2,0.6-2.4,1-3.6l4.8-16h2.4l-7,22H721.5z"/>
		<path class="st1" d="M734,254v-22h2v22H734z"/>
		<path class="st1" d="M739.4,246.9l2.3-0.2c0.1,1.1,0.4,2,0.8,2.8s1,1.3,1.8,1.7s1.8,0.7,2.8,0.7c0.9,0,1.7-0.2,2.4-0.5
			s1.2-0.8,1.6-1.4s0.5-1.2,0.5-1.9s-0.2-1.3-0.5-1.8s-0.9-1-1.6-1.3c-0.5-0.2-1.6-0.6-3.2-1.1c-1.7-0.5-2.8-1-3.5-1.4
			c-0.9-0.6-1.5-1.2-1.9-2.1s-0.6-1.8-0.6-2.8c0-1.1,0.3-2.2,0.8-3.2s1.3-1.7,2.3-2.2s2.1-0.8,3.3-0.8c1.3,0,2.5,0.3,3.5,0.8
			s1.8,1.3,2.4,2.4s0.8,2.2,0.9,3.5l-2.3,0.2c-0.1-1.4-0.5-2.5-1.2-3.2s-1.8-1.1-3.2-1.1c-1.5,0-2.5,0.3-3.2,1s-1,1.4-1,2.4
			c0,0.8,0.2,1.5,0.7,2s1.7,1.1,3.6,1.6c2,0.5,3.3,1,4,1.4c1,0.6,1.8,1.4,2.3,2.3s0.8,2,0.8,3.2s-0.3,2.3-0.8,3.4
			c-0.5,1.1-1.3,1.9-2.4,2.5c-1,0.6-2.2,0.9-3.5,0.9c-1.6,0-3-0.3-4.1-0.9s-2-1.5-2.6-2.7C739.7,249.7,739.4,248.4,739.4,246.9z"/>
		<path class="st1" d="M756.3,243.2c0-3.7,0.8-6.6,2.4-8.7c1.6-2.1,3.7-3.1,6.2-3.1c1.7,0,3.2,0.5,4.5,1.5s2.4,2.4,3.1,4.1
			c0.7,1.8,1.1,3.8,1.1,6c0,2.3-0.4,4.3-1.1,6.1s-1.8,3.1-3.2,4.1c-1.4,0.9-2.8,1.4-4.4,1.4c-1.7,0-3.2-0.5-4.6-1.5s-2.4-2.4-3-4.2
			S756.3,245.1,756.3,243.2z M758.8,243.2c0,2.7,0.6,4.8,1.8,6.4c1.2,1.6,2.6,2.3,4.4,2.3c1.8,0,3.3-0.8,4.5-2.4
			c1.2-1.6,1.8-3.8,1.8-6.7c0-1.8-0.2-3.4-0.8-4.8s-1.2-2.4-2.2-3.2s-2-1.1-3.2-1.1c-1.7,0-3.2,0.7-4.4,2.2
			C759.4,237.4,758.8,239.9,758.8,243.2z"/>
		<path class="st1" d="M777,254.1V232h7.9c1.6,0,2.8,0.2,3.6,0.6c0.8,0.4,1.5,1.1,2,2.1s0.7,2.1,0.7,3.3c0,1.6-0.4,2.9-1.2,3.9
			s-2.1,1.8-3.8,2c0.6,0.4,1.1,0.7,1.4,1.1c0.7,0.8,1.3,1.8,2,2.9l3.1,6h-3.1l-2.4-4.6c-0.7-1.3-1.3-2.4-1.7-3.1
			c-0.5-0.7-0.9-1.2-1.2-1.5c-0.4-0.3-0.7-0.5-1.1-0.6c-0.3-0.1-0.7-0.1-1.3-0.2h-3v10L777,254.1L777,254.1z M779,241h4.8
			c1,0,1.8-0.1,2.4-0.4c0.6-0.3,1-0.7,1.3-1.3s0.5-1.2,0.5-1.9c0-1-0.3-1.8-0.9-2.5c-0.6-0.6-1.5-1-2.8-1H779V241z"/>
	</g>
	<g>
		<path class="st2" d="M442,137v60h-7v-60H442z"/>
		<path class="st2" d="M455,165.6c0-4.4-0.1-8.1-0.3-11.6h6.1l0.4,7h0.2c1.9-4.1,6.4-8.1,12.9-8.1c5.4,0,13.7,3.6,13.7,18.4V197h-7
			v-24.7c0-6.9-2.3-12.7-9-12.7c-4.7,0-8.3,3.6-9.5,8c-0.3,1-0.5,2.3-0.5,3.6V197h-7L455,165.6L455,165.6z"/>
		<path class="st2" d="M500,197v-37h-5v-6h5v-2c0-6,1.2-11.5,4.5-15c2.7-2.8,6.2-4,9.5-4c2.5,0,4.7,0.6,6,1.2l-1,6
			c-1-0.5-2.5-1-4.5-1c-6,0-7.6,5.8-7.6,12.4v2.3h9v6h-9v37H500V197z"/>
		<path class="st2" d="M556.5,174.6c0,15.9-9.9,22.8-19.3,22.8c-10.5,0-18.5-8.5-18.5-22.1c0-14.3,8.5-22.8,19.2-22.8
			C549,152.6,556.5,161.5,556.5,174.6z M525.8,175.1c0,9.4,4.9,16.5,11.7,16.5c6.7,0,11.7-7,11.7-16.7c0-7.3-3.3-16.5-11.6-16.5
			S525.8,166.9,525.8,175.1z"/>
		<path class="st2" d="M574,141.7V154h10v6h-10v23.1c0,5.3,1.4,8.3,5.4,8.3c1.9,0,3.3-0.3,4.2-0.5l0.3,5.8c-1.4,0.6-3.6,1.1-6.3,1.1
			c-3.3,0-6-1.2-7.7-3.3c-2-2.3-2.8-6.1-2.8-11.2V160h-6v-6h6v-10.3L574,141.7z"/>
		<path class="st2" d="M595.3,177c0.2,10.5,6.2,14.9,13.3,14.9c5,0,8.1-1,10.7-2.2l1.2,5.6c-2.5,1.2-6.7,2.7-12.9,2.7
			c-11.9,0-19-8.7-19-21.6c0-12.9,6.9-23.1,18.1-23.1c12.6,0,16,12.3,16,20.2c0,1.6-0.2,2.8-0.2,3.6L595.3,177L595.3,177z
			 M615.9,171c0.1-5-1.8-12.7-9.8-12.7c-7.1,0-10.2,7.3-10.8,12.7H615.9z"/>
		<path class="st2" d="M658.9,194.8c-1.8,1.1-5.9,2.5-11.1,2.5c-11.7,0-19.3-8.8-19.3-21.9c0-13.2,8.2-22.8,20.8-22.8
			c4.2,0,7.8,1.2,9.8,2.2l-1.6,6c-1.7-1.1-4.3-2-8.2-2c-8.9,0-13.7,7.3-13.7,16.2c0,9.9,5.8,16,13.4,16c4,0,6.6-1.2,8.6-2.1
			L658.9,194.8z"/>
		<path class="st2" d="M667,134h7v27h0.2c1.1-2.2,2.9-4.1,5.1-5.5c2.1-1.3,4.6-2.2,7.2-2.2c5.2,0,13.6,3.5,13.6,18.3V197h-7v-24.6
			c0-6.9-2.3-12.8-9-12.8c-4.6,0-8.2,3.5-9.5,7.8c-0.4,1.1-0.5,2.2-0.5,3.7V197h-7L667,134L667,134z"/>
	</g>
</g>
</svg>
