<?xml version="1.0" encoding="utf-8"?>
<!-- Generator: Adobe Illustrator 25.4.0, SVG Export Plug-In . SVG Version: 6.00 Build 0)  -->
<svg version="1.1" xmlns="http://www.w3.org/2000/svg" xmlns:xlink="http://www.w3.org/1999/xlink" x="0px" y="0px"
	 viewBox="0 0 1616 415" style="enable-background:new 0 0 1616 415;" xml:space="preserve">
<style type="text/css">
	.st0{fill:#026D07;}
	.st1{fill:#FF9933;}
	.st2{fill:#FFFFFF;}
	.st3{fill:#00269D;}
	.st4{font-family:'Shruti-Bold';}
	.st5{font-size:145.0407px;}
	.st6{font-family:'EngraversGothicBT-Regular';}
	.st7{font-size:76.3076px;}
	.st8{font-family:'Square721BT-Roman';}
	.st9{font-size:194.0837px;}
</style>
<g id="Layer_1">
</g>
<g id="Layer_2">
	<g>
		<path class="st0" d="M-640.27-26.68l-81.99-81.99l-37,37l53.53,53.53c12.5,12.5,12.5,32.77,0,45.27l-150.91,150.91
			c-12.5,12.5-32.77,12.5-45.27,0l-150.91-150.91c-12.5-12.5-12.5-32.77,0-45.27l150.91-150.91c12.5-12.5,32.77-12.5,45.27,0
			l18.53,18.53l37-37l-46.99-46.99c-17.22-17.22-45.13-17.22-62.35,0l-207.84,207.84c-17.22,17.22-17.22,45.13,0,62.35
			l207.84,207.84c17.22,17.22,45.13,17.22,62.35,0l207.84-207.84C-623.05,18.46-623.05-9.46-640.27-26.68z"/>
		<path class="st1" d="M-442.27-28.68L-650.1-236.51c-17.22-17.22-45.13-17.22-62.35,0L-920.29-28.68
			c-17.22,17.22-17.22,45.13,0,62.35l81.49,81.49l37-37l-53.03-53.03c-12.5-12.5-12.5-32.77,0-45.27l150.91-150.91
			c12.5-12.5,32.77-12.5,45.27,0l150.91,150.91c12.5,12.5,12.5,32.77,0,45.27l-150.91,150.91c-12.5,12.5-32.77,12.5-45.27,0
			l-19.03-19.03l-37,37l47.49,47.49c17.22,17.22,45.13,17.22,62.35,0l207.84-207.84C-425.05,16.46-425.05-11.46-442.27-28.68z"/>
	</g>
	<g>
		<text transform="matrix(1 0 0 1 -970.0762 491.2744)" class="st3 st4" style="font-size:110.5839px;">Infotech</text>
	</g>
	<text transform="matrix(1 0 0 1 -1165.3496 561.7656)" class="st0 st6" style="font-size:58.1795px;">Algorithm. Analytics. Advisor</text>
	<g>
		<text transform="matrix(1.8072 0 0 1 -1157.4155 384.0684)" class="st3 st8" style="font-size:137.5784px;">GVMS</text>
	</g>
</g>
<g id="Layer_4">
</g>
<g id="Layer_3">
	<rect class="st2" width="1541" height="415"/>
	<path class="st0" d="M387.76,179.64l-61.21-61.21l-27.62,27.62l39.96,39.96c9.33,9.33,9.33,24.47,0,33.8L226.22,332.48
		c-9.33,9.33-24.46,9.33-33.8,0L79.76,219.82c-9.33-9.33-9.33-24.47,0-33.8L192.42,73.35c9.33-9.33,24.47-9.33,33.8,0l13.84,13.83
		l27.62-27.62L232.6,24.48c-12.85-12.85-33.69-12.85-46.55,0L30.89,179.64c-12.85,12.85-12.85,33.7,0,46.55l155.17,155.16
		c12.85,12.85,33.69,12.85,46.55,0l155.16-155.16C400.61,213.34,400.61,192.5,387.76,179.64z"/>
	<path class="st1" d="M535.58,178.15L380.42,22.99c-12.85-12.85-33.7-12.86-46.55,0L178.71,178.15c-12.85,12.85-12.85,33.7,0,46.55
		l60.84,60.84l27.62-27.62l-39.59-39.59c-9.33-9.33-9.34-24.47,0-33.8L340.24,71.86c9.33-9.33,24.47-9.33,33.8,0l112.67,112.67
		c9.33,9.33,9.33,24.46,0,33.8L374.04,330.99c-9.33,9.33-24.47,9.33-33.8,0l-14.21-14.21l-27.62,27.62l35.45,35.45
		c12.85,12.85,33.7,12.85,46.55,0L535.58,224.7C548.43,211.84,548.43,191,535.58,178.15z"/>
	<g>
		<text transform="matrix(1 0 0 1 791.5049 302.9199)" class="st3 st4 st5">Infotech</text>
	</g>
	<text transform="matrix(1 0 0 1 565.0029 376.9638)" class="st0 st6 st7">Algorithm. Analytics. Advisor</text>
	<g>
		<text transform="matrix(1.8072 0 0 1 539.9004 169.5996)" class="st3 st8 st9">GVMS</text>
	</g>
</g>
</svg>
