<?xml version="1.0" encoding="utf-8"?>
<!-- Generator: Adobe Illustrator 25.3.1, SVG Export Plug-In . SVG Version: 6.00 Build 0)  -->
<svg version="1.1" id="Layer_1" xmlns="http://www.w3.org/2000/svg" xmlns:xlink="http://www.w3.org/1999/xlink" x="0px" y="0px"
	 viewBox="0 0 365 257" style="enable-background:new 0 0 365 257;" xml:space="preserve">
<style type="text/css">
	.st0{fill:#009245;}
	.st1{fill:#F7931E;}
</style>
<g>
	<path class="st0" d="M235.4,110.11l-24.19-24.28l-13.95,14l7.23,7.26c12.24,12.29,12.24,32.21,0,44.5l-56.68,56.89
		c-12.24,12.29-32.09,12.29-44.34,0l-54.8-55.01c-12.24-12.29-12.24-32.21,0-44.5l56.68-56.89c12.24-12.29,32.09-12.29,44.34,0
		l5.73,5.75l13.95-14L150.11,24.5c-12.24-12.29-32.09-12.29-44.34,0l-85.48,85.79c-12.24,12.29-12.24,32.21,0,44.5l85.29,85.61
		c12.24,12.29,32.09,12.29,44.34,0l85.48-85.79C247.64,142.32,247.64,122.4,235.4,110.11z"/>
	<path class="st1" d="M126.78,157l24.75,23.7l13.62-14.33l-7.4-7.09c-12.53-12-13-31.91-1.05-44.49l55.33-58.22
		c11.95-12.58,31.8-13.05,44.33-1.05l56.08,53.7c12.53,12,13,31.91,1.05,44.49l-55.33,58.22c-11.95,12.58-31.8,13.05-44.33,1.05
		l-5.86-5.61l-13.62,14.33l19.71,18.87c12.53,12,32.37,11.53,44.33-1.05l83.44-87.79c11.95-12.58,11.48-32.49-1.05-44.49
		L253.5,23.68c-12.53-12-32.37-11.53-44.33,1.05l-83.44,87.79C113.78,125.09,114.25,145.01,126.78,157z"/>
</g>
</svg>
